<mxfile host="app.diagrams.net" modified="2021-08-07T09:31:19.662Z" agent="5.0 (Macintosh; Intel Mac OS X 10_15_7) AppleWebKit/537.36 (KHTML, like Gecko) Chrome/92.0.4515.131 Safari/537.36" etag="YrSatG3Ar2UayNK6rlZs" version="14.9.5" type="github">
  <diagram id="63AhvlpNCaT2Hpk2dzBt" name="第 1 页">
    <mxGraphModel dx="946" dy="501" grid="1" gridSize="10" guides="1" tooltips="1" connect="1" arrows="1" fold="1" page="1" pageScale="1" pageWidth="827" pageHeight="1169" math="0" shadow="0">
      <root>
        <mxCell id="0" />
        <mxCell id="1" parent="0" />
        <mxCell id="-SE4YziS219r5XPqcCqn-1" value="数据源" style="shape=datastore;whiteSpace=wrap;html=1;" parent="1" vertex="1">
          <mxGeometry x="110" y="160" width="60" height="80" as="geometry" />
        </mxCell>
        <mxCell id="-SE4YziS219r5XPqcCqn-4" value="业务系统" style="html=1;shadow=0;dashed=0;align=center;verticalAlign=middle;shape=mxgraph.arrows2.arrow;dy=0.6;dx=40;notch=0;" parent="1" vertex="1">
          <mxGeometry x="113" y="80" width="110" height="60" as="geometry" />
        </mxCell>
        <mxCell id="-SE4YziS219r5XPqcCqn-5" value="数据抽取" style="html=1;shadow=0;dashed=0;align=center;verticalAlign=middle;shape=mxgraph.arrows2.arrow;dy=0.6;dx=40;notch=0;" parent="1" vertex="1">
          <mxGeometry x="226" y="80" width="124" height="60" as="geometry" />
        </mxCell>
        <mxCell id="-SE4YziS219r5XPqcCqn-6" value="数据加工" style="html=1;shadow=0;dashed=0;align=center;verticalAlign=middle;shape=mxgraph.arrows2.arrow;dy=0.6;dx=40;notch=0;fillColor=#dae8fc;strokeColor=#6c8ebf;" parent="1" vertex="1">
          <mxGeometry x="350" y="80" width="150" height="60" as="geometry" />
        </mxCell>
        <mxCell id="-SE4YziS219r5XPqcCqn-7" value="数据预处理" style="html=1;shadow=0;dashed=0;align=center;verticalAlign=middle;shape=mxgraph.arrows2.arrow;dy=0.6;dx=40;notch=0;" parent="1" vertex="1">
          <mxGeometry x="500" y="80" width="160" height="60" as="geometry" />
        </mxCell>
        <mxCell id="-SE4YziS219r5XPqcCqn-8" value="建模与应用" style="html=1;shadow=0;dashed=0;align=center;verticalAlign=middle;shape=mxgraph.arrows2.arrow;dy=0.6;dx=40;notch=0;fillColor=#dae8fc;strokeColor=#6c8ebf;" parent="1" vertex="1">
          <mxGeometry x="663" y="80" width="157" height="60" as="geometry" />
        </mxCell>
        <mxCell id="-SE4YziS219r5XPqcCqn-9" value="" style="line;strokeWidth=2;direction=south;html=1;dashed=1;" parent="1" vertex="1">
          <mxGeometry x="220" y="60" width="10" height="220" as="geometry" />
        </mxCell>
        <mxCell id="-SE4YziS219r5XPqcCqn-10" value="" style="line;strokeWidth=2;direction=south;html=1;dashed=1;" parent="1" vertex="1">
          <mxGeometry x="347" y="60" width="10" height="220" as="geometry" />
        </mxCell>
        <mxCell id="-SE4YziS219r5XPqcCqn-11" value="" style="line;strokeWidth=2;direction=south;html=1;dashed=1;" parent="1" vertex="1">
          <mxGeometry x="497" y="60" width="10" height="220" as="geometry" />
        </mxCell>
        <mxCell id="-SE4YziS219r5XPqcCqn-12" value="" style="line;strokeWidth=2;direction=south;html=1;dashed=1;" parent="1" vertex="1">
          <mxGeometry x="658" y="60" width="10" height="220" as="geometry" />
        </mxCell>
        <mxCell id="-SE4YziS219r5XPqcCqn-13" value="" style="endArrow=classic;html=1;exitX=1;exitY=0.3;exitDx=0;exitDy=0;" parent="1" source="-SE4YziS219r5XPqcCqn-1" edge="1">
          <mxGeometry relative="1" as="geometry">
            <mxPoint x="180" y="200" as="sourcePoint" />
            <mxPoint x="258" y="184" as="targetPoint" />
          </mxGeometry>
        </mxCell>
        <mxCell id="-SE4YziS219r5XPqcCqn-14" value="选择性抽取" style="edgeLabel;resizable=0;html=1;align=center;verticalAlign=middle;" parent="-SE4YziS219r5XPqcCqn-13" connectable="0" vertex="1">
          <mxGeometry relative="1" as="geometry" />
        </mxCell>
        <mxCell id="-SE4YziS219r5XPqcCqn-15" value="" style="endArrow=classic;html=1;exitX=1.033;exitY=0.833;exitDx=0;exitDy=0;exitPerimeter=0;entryX=0;entryY=0.5;entryDx=0;entryDy=0;" parent="1" source="-SE4YziS219r5XPqcCqn-1" target="-SE4YziS219r5XPqcCqn-20" edge="1">
          <mxGeometry relative="1" as="geometry">
            <mxPoint x="180" y="230" as="sourcePoint" />
            <mxPoint x="260" y="230" as="targetPoint" />
          </mxGeometry>
        </mxCell>
        <mxCell id="-SE4YziS219r5XPqcCqn-16" value="新增data抽取" style="edgeLabel;resizable=0;html=1;align=center;verticalAlign=middle;" parent="-SE4YziS219r5XPqcCqn-15" connectable="0" vertex="1">
          <mxGeometry relative="1" as="geometry" />
        </mxCell>
        <mxCell id="-SE4YziS219r5XPqcCqn-47" style="edgeStyle=orthogonalEdgeStyle;rounded=0;orthogonalLoop=1;jettySize=auto;html=1;exitX=1;exitY=0.5;exitDx=0;exitDy=0;entryX=0;entryY=0.5;entryDx=0;entryDy=0;" parent="1" source="-SE4YziS219r5XPqcCqn-18" target="-SE4YziS219r5XPqcCqn-46" edge="1">
          <mxGeometry relative="1" as="geometry" />
        </mxCell>
        <mxCell id="-SE4YziS219r5XPqcCqn-18" value="历史数据" style="rounded=1;whiteSpace=wrap;html=1;" parent="1" vertex="1">
          <mxGeometry x="260" y="160" width="60" height="40" as="geometry" />
        </mxCell>
        <mxCell id="-SE4YziS219r5XPqcCqn-50" style="edgeStyle=orthogonalEdgeStyle;rounded=0;orthogonalLoop=1;jettySize=auto;html=1;exitX=1;exitY=0.5;exitDx=0;exitDy=0;entryX=0;entryY=0.5;entryDx=0;entryDy=0;" parent="1" source="-SE4YziS219r5XPqcCqn-20" target="-SE4YziS219r5XPqcCqn-46" edge="1">
          <mxGeometry relative="1" as="geometry" />
        </mxCell>
        <mxCell id="-SE4YziS219r5XPqcCqn-20" value="定时更新后的data" style="rounded=1;whiteSpace=wrap;html=1;" parent="1" vertex="1">
          <mxGeometry x="260" y="207" width="60" height="40" as="geometry" />
        </mxCell>
        <mxCell id="-SE4YziS219r5XPqcCqn-34" style="edgeStyle=orthogonalEdgeStyle;rounded=0;orthogonalLoop=1;jettySize=auto;html=1;exitX=1;exitY=0.5;exitDx=0;exitDy=0;entryX=0.25;entryY=0;entryDx=0;entryDy=0;" parent="1" source="-SE4YziS219r5XPqcCqn-35" target="-SE4YziS219r5XPqcCqn-38" edge="1">
          <mxGeometry relative="1" as="geometry">
            <mxPoint x="287" y="490" as="targetPoint" />
          </mxGeometry>
        </mxCell>
        <mxCell id="-SE4YziS219r5XPqcCqn-35" value="DataSource" style="shape=datastore;whiteSpace=wrap;html=1;fillColor=#d5e8d4;strokeColor=#82b366;" parent="1" vertex="1">
          <mxGeometry x="171" y="470" width="70" height="60" as="geometry" />
        </mxCell>
        <mxCell id="-SE4YziS219r5XPqcCqn-36" style="edgeStyle=orthogonalEdgeStyle;rounded=0;orthogonalLoop=1;jettySize=auto;html=1;exitX=0.5;exitY=1;exitDx=0;exitDy=0;entryX=0;entryY=0.5;entryDx=0;entryDy=0;" parent="1" source="-SE4YziS219r5XPqcCqn-38" target="-SE4YziS219r5XPqcCqn-37" edge="1">
          <mxGeometry relative="1" as="geometry">
            <mxPoint x="463" y="490" as="sourcePoint" />
          </mxGeometry>
        </mxCell>
        <mxCell id="-SE4YziS219r5XPqcCqn-37" value="Data&lt;br&gt;Destination" style="shape=datastore;whiteSpace=wrap;html=1;fillColor=#dae8fc;strokeColor=#6c8ebf;" parent="1" vertex="1">
          <mxGeometry x="361" y="700" width="91" height="60" as="geometry" />
        </mxCell>
        <mxCell id="-SE4YziS219r5XPqcCqn-86" style="edgeStyle=orthogonalEdgeStyle;rounded=0;orthogonalLoop=1;jettySize=auto;html=1;exitX=0.25;exitY=0;exitDx=0;exitDy=0;" parent="1" edge="1">
          <mxGeometry relative="1" as="geometry">
            <mxPoint x="265.25" y="550" as="sourcePoint" />
            <mxPoint x="260" y="560" as="targetPoint" />
          </mxGeometry>
        </mxCell>
        <mxCell id="-SE4YziS219r5XPqcCqn-38" value="" style="rounded=0;whiteSpace=wrap;html=1;fillColor=#fff2cc;strokeColor=#d6b656;" parent="1" vertex="1">
          <mxGeometry x="210" y="550" width="205" height="130" as="geometry" />
        </mxCell>
        <mxCell id="-SE4YziS219r5XPqcCqn-39" style="edgeStyle=orthogonalEdgeStyle;rounded=0;orthogonalLoop=1;jettySize=auto;html=1;exitX=0.5;exitY=1;exitDx=0;exitDy=0;entryX=0;entryY=0.5;entryDx=0;entryDy=0;" parent="1" source="-SE4YziS219r5XPqcCqn-40" target="-SE4YziS219r5XPqcCqn-43" edge="1">
          <mxGeometry relative="1" as="geometry" />
        </mxCell>
        <mxCell id="-SE4YziS219r5XPqcCqn-40" value="Input&lt;br&gt;Plugin" style="rounded=1;whiteSpace=wrap;html=1;" parent="1" vertex="1">
          <mxGeometry x="215" y="595" width="80" height="30" as="geometry" />
        </mxCell>
        <mxCell id="-SE4YziS219r5XPqcCqn-41" value="&lt;span&gt;Output&lt;/span&gt;&lt;br&gt;&lt;span&gt;Plugin&lt;/span&gt;" style="rounded=1;whiteSpace=wrap;html=1;" parent="1" vertex="1">
          <mxGeometry x="329" y="593" width="80" height="30" as="geometry" />
        </mxCell>
        <mxCell id="-SE4YziS219r5XPqcCqn-42" style="edgeStyle=orthogonalEdgeStyle;rounded=0;orthogonalLoop=1;jettySize=auto;html=1;exitX=0.75;exitY=0;exitDx=0;exitDy=0;entryX=0.5;entryY=1;entryDx=0;entryDy=0;" parent="1" source="-SE4YziS219r5XPqcCqn-43" target="-SE4YziS219r5XPqcCqn-41" edge="1">
          <mxGeometry relative="1" as="geometry" />
        </mxCell>
        <mxCell id="-SE4YziS219r5XPqcCqn-43" value="&lt;font face=&quot;Courier New&quot;&gt;Function&lt;br&gt;Plugin&lt;/font&gt;" style="label;whiteSpace=wrap;html=1;image=img/clipart/Gear_128x128.png" parent="1" vertex="1">
          <mxGeometry x="285" y="638" width="126" height="30" as="geometry" />
        </mxCell>
        <mxCell id="-SE4YziS219r5XPqcCqn-44" value="Logfn" style="text;html=1;strokeColor=none;fillColor=none;align=center;verticalAlign=middle;whiteSpace=wrap;rounded=0;" parent="1" vertex="1">
          <mxGeometry x="170" y="550" width="40" height="20" as="geometry" />
        </mxCell>
        <mxCell id="-SE4YziS219r5XPqcCqn-61" style="edgeStyle=orthogonalEdgeStyle;rounded=0;orthogonalLoop=1;jettySize=auto;html=1;exitX=1;exitY=0.5;exitDx=0;exitDy=0;entryX=0.033;entryY=0.423;entryDx=0;entryDy=0;entryPerimeter=0;" parent="1" source="-SE4YziS219r5XPqcCqn-46" target="-SE4YziS219r5XPqcCqn-51" edge="1">
          <mxGeometry relative="1" as="geometry" />
        </mxCell>
        <mxCell id="-SE4YziS219r5XPqcCqn-46" value="Logfn系统" style="rounded=1;whiteSpace=wrap;html=1;fillColor=#f8cecc;strokeColor=#b85450;" parent="1" vertex="1">
          <mxGeometry x="365" y="170" width="120" height="60" as="geometry" />
        </mxCell>
        <mxCell id="-SE4YziS219r5XPqcCqn-60" style="edgeStyle=orthogonalEdgeStyle;rounded=0;orthogonalLoop=1;jettySize=auto;html=1;exitX=1;exitY=0.5;exitDx=0;exitDy=0;entryX=0;entryY=0.5;entryDx=0;entryDy=0;" parent="1" source="-SE4YziS219r5XPqcCqn-51" target="-SE4YziS219r5XPqcCqn-53" edge="1">
          <mxGeometry relative="1" as="geometry" />
        </mxCell>
        <mxCell id="-SE4YziS219r5XPqcCqn-51" value="缺失值与异常值分析" style="rounded=0;whiteSpace=wrap;html=1;" parent="1" vertex="1">
          <mxGeometry x="510" y="147" width="30" height="123" as="geometry" />
        </mxCell>
        <mxCell id="-SE4YziS219r5XPqcCqn-52" value="周期性分析" style="rounded=0;whiteSpace=wrap;html=1;" parent="1" vertex="1">
          <mxGeometry x="560" y="147" width="90" height="33" as="geometry" />
        </mxCell>
        <mxCell id="-SE4YziS219r5XPqcCqn-53" value="数据清洗" style="rounded=0;whiteSpace=wrap;html=1;" parent="1" vertex="1">
          <mxGeometry x="560" y="192" width="90" height="33" as="geometry" />
        </mxCell>
        <mxCell id="-SE4YziS219r5XPqcCqn-54" value="属性构造" style="rounded=0;whiteSpace=wrap;html=1;" parent="1" vertex="1">
          <mxGeometry x="560" y="237" width="90" height="33" as="geometry" />
        </mxCell>
        <mxCell id="-SE4YziS219r5XPqcCqn-57" value="" style="edgeStyle=elbowEdgeStyle;elbow=horizontal;endArrow=classic;html=1;exitX=1;exitY=0.5;exitDx=0;exitDy=0;entryX=0;entryY=0.5;entryDx=0;entryDy=0;" parent="1" source="-SE4YziS219r5XPqcCqn-51" target="-SE4YziS219r5XPqcCqn-52" edge="1">
          <mxGeometry width="50" height="50" relative="1" as="geometry">
            <mxPoint x="440" y="380" as="sourcePoint" />
            <mxPoint x="490" y="330" as="targetPoint" />
          </mxGeometry>
        </mxCell>
        <mxCell id="-SE4YziS219r5XPqcCqn-59" value="" style="edgeStyle=elbowEdgeStyle;elbow=horizontal;endArrow=classic;html=1;entryX=0;entryY=0.5;entryDx=0;entryDy=0;" parent="1" target="-SE4YziS219r5XPqcCqn-54" edge="1">
          <mxGeometry width="50" height="50" relative="1" as="geometry">
            <mxPoint x="540" y="210" as="sourcePoint" />
            <mxPoint x="570" y="173.5" as="targetPoint" />
          </mxGeometry>
        </mxCell>
        <mxCell id="-SE4YziS219r5XPqcCqn-62" value="数&lt;br&gt;据&lt;br&gt;建&lt;br&gt;模" style="rounded=0;whiteSpace=wrap;html=1;" parent="1" vertex="1">
          <mxGeometry x="668" y="147" width="32" height="123" as="geometry" />
        </mxCell>
        <mxCell id="-SE4YziS219r5XPqcCqn-67" style="edgeStyle=orthogonalEdgeStyle;rounded=0;orthogonalLoop=1;jettySize=auto;html=1;exitX=0.5;exitY=1;exitDx=0;exitDy=0;entryX=0.5;entryY=0;entryDx=0;entryDy=0;" parent="1" source="-SE4YziS219r5XPqcCqn-63" target="-SE4YziS219r5XPqcCqn-64" edge="1">
          <mxGeometry relative="1" as="geometry" />
        </mxCell>
        <mxCell id="-SE4YziS219r5XPqcCqn-63" value="聚类算法" style="rounded=0;whiteSpace=wrap;html=1;fillColor=#f8cecc;strokeColor=#b85450;" parent="1" vertex="1">
          <mxGeometry x="720" y="147" width="90" height="23" as="geometry" />
        </mxCell>
        <mxCell id="-SE4YziS219r5XPqcCqn-68" style="edgeStyle=orthogonalEdgeStyle;rounded=0;orthogonalLoop=1;jettySize=auto;html=1;exitX=0.5;exitY=1;exitDx=0;exitDy=0;entryX=0.5;entryY=0;entryDx=0;entryDy=0;" parent="1" source="-SE4YziS219r5XPqcCqn-64" target="-SE4YziS219r5XPqcCqn-65" edge="1">
          <mxGeometry relative="1" as="geometry" />
        </mxCell>
        <mxCell id="-SE4YziS219r5XPqcCqn-64" value="&lt;meta charset=&quot;utf-8&quot;&gt;&lt;span style=&quot;color: rgb(0, 0, 0); font-family: helvetica; font-size: 12px; font-style: normal; font-weight: 400; letter-spacing: normal; text-align: center; text-indent: 0px; text-transform: none; word-spacing: 0px; background-color: rgb(248, 249, 250); display: inline; float: none;&quot;&gt;时序预测&lt;/span&gt;" style="rounded=0;whiteSpace=wrap;html=1;" parent="1" vertex="1">
          <mxGeometry x="720" y="180" width="90" height="23" as="geometry" />
        </mxCell>
        <mxCell id="-SE4YziS219r5XPqcCqn-69" style="edgeStyle=orthogonalEdgeStyle;rounded=0;orthogonalLoop=1;jettySize=auto;html=1;exitX=0.5;exitY=1;exitDx=0;exitDy=0;entryX=0.5;entryY=0;entryDx=0;entryDy=0;" parent="1" source="-SE4YziS219r5XPqcCqn-65" target="-SE4YziS219r5XPqcCqn-66" edge="1">
          <mxGeometry relative="1" as="geometry" />
        </mxCell>
        <mxCell id="-SE4YziS219r5XPqcCqn-65" value="模型评价" style="rounded=0;whiteSpace=wrap;html=1;" parent="1" vertex="1">
          <mxGeometry x="720" y="215.5" width="90" height="23" as="geometry" />
        </mxCell>
        <mxCell id="-SE4YziS219r5XPqcCqn-74" style="edgeStyle=orthogonalEdgeStyle;rounded=0;orthogonalLoop=1;jettySize=auto;html=1;exitX=1;exitY=0.5;exitDx=0;exitDy=0;entryX=0;entryY=0.5;entryDx=0;entryDy=0;" parent="1" source="-SE4YziS219r5XPqcCqn-66" target="-SE4YziS219r5XPqcCqn-73" edge="1">
          <mxGeometry relative="1" as="geometry" />
        </mxCell>
        <mxCell id="-SE4YziS219r5XPqcCqn-66" value="模型应用" style="rounded=0;whiteSpace=wrap;html=1;" parent="1" vertex="1">
          <mxGeometry x="720" y="247" width="90" height="23" as="geometry" />
        </mxCell>
        <mxCell id="-SE4YziS219r5XPqcCqn-70" value="" style="line;strokeWidth=2;direction=south;html=1;dashed=1;" parent="1" vertex="1">
          <mxGeometry x="817" y="60" width="10" height="220" as="geometry" />
        </mxCell>
        <mxCell id="-SE4YziS219r5XPqcCqn-72" value="结果与反馈" style="html=1;shadow=0;dashed=0;align=center;verticalAlign=middle;shape=mxgraph.arrows2.arrow;dy=0.6;dx=40;notch=0;" parent="1" vertex="1">
          <mxGeometry x="824" y="80" width="106" height="60" as="geometry" />
        </mxCell>
        <mxCell id="-SE4YziS219r5XPqcCqn-73" value="应用结果" style="shape=parallelogram;perimeter=parallelogramPerimeter;whiteSpace=wrap;html=1;fixedSize=1;" parent="1" vertex="1">
          <mxGeometry x="870" y="240" width="90" height="37" as="geometry" />
        </mxCell>
        <mxCell id="-SE4YziS219r5XPqcCqn-77" value="" style="edgeStyle=elbowEdgeStyle;elbow=horizontal;endArrow=classic;html=1;entryX=1;entryY=0.5;entryDx=0;entryDy=0;" parent="1" edge="1">
          <mxGeometry width="50" height="50" relative="1" as="geometry">
            <mxPoint x="850" y="258" as="sourcePoint" />
            <mxPoint x="810" y="156.5" as="targetPoint" />
            <Array as="points">
              <mxPoint x="840" y="210" />
            </Array>
          </mxGeometry>
        </mxCell>
        <mxCell id="-SE4YziS219r5XPqcCqn-82" value="模型优化与重构" style="text;html=1;strokeColor=none;fillColor=none;align=center;verticalAlign=middle;whiteSpace=wrap;rounded=0;" parent="1" vertex="1">
          <mxGeometry x="840" y="202" width="40" height="20" as="geometry" />
        </mxCell>
        <mxCell id="-SE4YziS219r5XPqcCqn-87" style="edgeStyle=orthogonalEdgeStyle;rounded=0;orthogonalLoop=1;jettySize=auto;html=1;exitX=0.5;exitY=1;exitDx=0;exitDy=0;entryX=0.5;entryY=0;entryDx=0;entryDy=0;" parent="1" source="-SE4YziS219r5XPqcCqn-84" target="-SE4YziS219r5XPqcCqn-40" edge="1">
          <mxGeometry relative="1" as="geometry" />
        </mxCell>
        <mxCell id="-SE4YziS219r5XPqcCqn-84" value="DSL配置语句" style="rounded=1;whiteSpace=wrap;html=1;" parent="1" vertex="1">
          <mxGeometry x="218" y="560" width="76" height="20" as="geometry" />
        </mxCell>
        <mxCell id="-SE4YziS219r5XPqcCqn-88" value="" style="rounded=1;whiteSpace=wrap;html=1;fillColor=#dae8fc;strokeColor=#6c8ebf;" parent="1" vertex="1">
          <mxGeometry x="597" y="290" width="50" height="20" as="geometry" />
        </mxCell>
        <mxCell id="-SE4YziS219r5XPqcCqn-89" value="" style="rounded=1;whiteSpace=wrap;html=1;fillColor=#f8cecc;strokeColor=#b85450;" parent="1" vertex="1">
          <mxGeometry x="597" y="320" width="50" height="20" as="geometry" />
        </mxCell>
        <mxCell id="-SE4YziS219r5XPqcCqn-90" value="创新阶段" style="text;html=1;strokeColor=none;fillColor=none;align=center;verticalAlign=middle;whiteSpace=wrap;rounded=0;" parent="1" vertex="1">
          <mxGeometry x="649" y="290" width="50" height="20" as="geometry" />
        </mxCell>
        <mxCell id="-SE4YziS219r5XPqcCqn-91" value="创新模块" style="text;html=1;strokeColor=none;fillColor=none;align=center;verticalAlign=middle;whiteSpace=wrap;rounded=0;" parent="1" vertex="1">
          <mxGeometry x="650" y="320" width="50" height="20" as="geometry" />
        </mxCell>
        <mxCell id="-SE4YziS219r5XPqcCqn-92" value="&lt;font style=&quot;font-size: 18px&quot;&gt;架构图&lt;/font&gt;" style="text;html=1;strokeColor=none;fillColor=none;align=center;verticalAlign=middle;whiteSpace=wrap;rounded=0;" parent="1" vertex="1">
          <mxGeometry x="457" y="310" width="93" height="20" as="geometry" />
        </mxCell>
        <mxCell id="-SE4YziS219r5XPqcCqn-94" value="" style="edgeStyle=elbowEdgeStyle;elbow=horizontal;endArrow=classic;html=1;exitX=1;exitY=0.5;exitDx=0;exitDy=0;entryX=0;entryY=0.25;entryDx=0;entryDy=0;" parent="1" source="-SE4YziS219r5XPqcCqn-62" target="-SE4YziS219r5XPqcCqn-63" edge="1">
          <mxGeometry width="50" height="50" relative="1" as="geometry">
            <mxPoint x="670" y="410" as="sourcePoint" />
            <mxPoint x="720" y="360" as="targetPoint" />
          </mxGeometry>
        </mxCell>
      </root>
    </mxGraphModel>
  </diagram>
</mxfile>
